<svg width="44" height="39" viewBox="0 0 44 39" fill="none" xmlns="http://www.w3.org/2000/svg">
<path d="M4.0994 8.19585L4.12506 8.11888V8.03774V4.28573C4.12506 2.3067 5.72937 0.702393 7.70839 0.702393H36.2917C38.2708 0.702393 39.8751 2.3067 39.8751 4.28573V8.03774V8.11887L39.9007 8.19585L42.9834 17.4441C43.681 19.5368 42.344 21.6937 40.2798 22.0943L39.8751 22.1729V22.5852V34.9107C39.8751 36.8898 38.2708 38.4941 36.2917 38.4941H28.1251H26.0834H17.9167H15.8751H7.70839C5.72936 38.4941 4.12506 36.8898 4.12506 34.9107V22.5852V22.1729L3.72032 22.0943C1.65609 21.6937 0.319112 19.5368 1.0166 17.4442L4.0994 8.19585ZM27.6251 34.9107V35.4107H28.1251H36.2917H36.7917V34.9107V22.6607V22.1607H36.2917H33.2292H22.0001H10.7709H7.70839H7.20839V22.6607V34.9107V35.4107H7.70839H15.8751H16.3751V34.9107V28.7857C16.3751 25.679 18.8934 23.1607 22.0001 23.1607C25.1067 23.1607 27.6251 25.679 27.6251 28.7857V34.9107ZM19.4584 34.9107V35.4107H19.9584H24.0417H24.5417V34.9107V28.7857C24.5417 27.382 23.4038 26.2441 22.0001 26.2441C20.5963 26.2441 19.4584 27.382 19.4584 28.7857V34.9107ZM3.94172 18.4193L3.72235 19.0774H4.41606H5.66672H9.04133H9.46489L9.53453 18.6596L10.8956 10.4929L10.9927 9.91072H10.4024H7.13827H6.77789L6.66393 10.2526L3.94172 18.4193ZM12.6878 18.4952L12.5908 19.0774H13.181H19.9584H20.4584V18.5774V10.4107V9.91072H19.9584H14.5421H14.1185L14.0489 10.3285L12.6878 18.4952ZM23.5417 18.5774V19.0774H24.0417H30.819H31.4093L31.3122 18.4952L29.9513 10.3285L29.8816 9.91072H29.4581H24.0417H23.5417V10.4107V18.5774ZM34.4655 18.6596L34.5351 19.0774H34.9587H38.3334H39.5841H40.2778L40.0584 18.4193L37.3361 10.2526L37.2221 9.91072H36.8618H33.5977H33.0075L33.1045 10.4929L34.4655 18.6596ZM36.7917 4.28573V3.78573H36.2917H7.70839H7.20839V4.28573V6.32739V6.82739H7.70839H12.8126H22.0001H31.1876H36.2917H36.7917V6.32739V4.28573Z" fill="#9A3F81" stroke="white"/>
</svg>
