<svg width="37" height="38" viewBox="0 0 37 38" fill="none" xmlns="http://www.w3.org/2000/svg">
<path d="M0.184229 18.6181C0.184229 8.50917 8.39101 0.302393 18.4999 0.302393C28.6076 0.302393 36.8157 8.50918 36.8157 18.6181C36.8157 28.7257 28.6075 36.9338 18.4999 36.9338C8.39102 36.9338 0.184229 28.7257 0.184229 18.6181ZM34.3848 18.6181C34.3848 9.85093 27.2671 2.73321 18.4999 2.73321C9.73276 2.73321 2.61504 9.85093 2.61504 18.6181C2.61504 27.3853 9.73276 34.503 18.4999 34.503C27.2671 34.503 34.3848 27.3853 34.3848 18.6181Z" fill="#9A3F81" stroke="white" stroke-width="0.2"/>
<path d="M13.2224 13.4616H13.3224V13.3616V9.47723C13.3224 7.35283 15.0443 5.63101 17.1687 5.63101H19.8297C21.9541 5.63101 23.676 7.35283 23.676 9.47723V13.3616V13.4616H23.776H27.7235C29.8479 13.4616 31.5697 15.1834 31.5697 17.3079V19.9689C31.5697 22.0933 29.8479 23.8151 27.7235 23.8151H23.776H23.676V23.9151V27.8587C23.676 29.9831 21.9541 31.705 19.8297 31.705H17.1687C15.0443 31.705 13.3224 29.9831 13.3224 27.8587V23.9151V23.8151H13.2224H9.3078C7.18339 23.8151 5.46157 22.0933 5.46157 19.9689V17.3079C5.46157 15.1834 7.18339 13.4616 9.3078 13.4616H13.2224ZM15.7533 14.677C15.7533 15.3479 15.2087 15.8924 14.5379 15.8924H9.3078C8.52653 15.8924 7.89239 16.5251 7.89239 17.3079V19.9689C7.89239 20.7503 8.52646 21.3843 9.3078 21.3843H14.5379C15.2088 21.3843 15.7533 21.9276 15.7533 22.5997V27.8587C15.7533 28.6414 16.386 29.2741 17.1687 29.2741H19.8297C20.611 29.2741 21.2452 28.6415 21.2452 27.8587V22.5997C21.2452 21.9275 21.7884 21.3843 22.4606 21.3843H27.7235C28.5048 21.3843 29.1389 20.7503 29.1389 19.9689V17.3079C29.1389 16.5251 28.5048 15.8924 27.7235 15.8924H22.4606C21.7884 15.8924 21.2452 15.348 21.2452 14.677V9.47723C21.2452 8.69451 20.611 8.06182 19.8297 8.06182H17.1687C16.386 8.06182 15.7533 8.69458 15.7533 9.47723V14.677Z" fill="#9A3F81" stroke="white" stroke-width="0.2"/>
</svg>
