<svg width="63" height="63" viewBox="0 0 63 63" fill="none" xmlns="http://www.w3.org/2000/svg">
<path d="M52.1594 28.9311H51.2566L49.7865 25.0703C52.2097 23.433 53.7996 20.6866 53.7996 17.5743C53.7996 12.5566 49.6682 8.48877 44.5721 8.48877C39.476 8.48877 35.3446 12.5566 35.3446 17.5743C35.3446 20.6866 36.9344 23.4329 39.3577 25.0703L37.8874 28.9311H36.9849C36.0788 28.9311 35.3446 29.654 35.3446 30.5461V33.3732C35.3446 34.2653 36.0788 34.9882 36.9849 34.9882H38.4203C38.4203 38.7508 35.3212 41.8023 31.4997 41.8023C27.6783 41.8023 24.5791 38.7508 24.5791 34.9882V20.6027H26.0149C26.921 20.6027 27.6551 19.8799 27.6551 18.9878V16.1607C27.6551 15.2686 26.921 14.5457 26.0149 14.5457H24.5791V10.1038C24.5791 9.21162 23.845 8.48877 22.939 8.48877H13.9161C13.01 8.48877 12.2759 9.21162 12.2759 10.1038V14.5458H10.8404C9.93434 14.5458 9.2002 15.2686 9.2002 16.1608V18.9878C9.2002 19.88 9.93434 20.6028 10.8404 20.6028H12.2759V34.9882C12.2759 45.4258 20.8992 53.9163 31.4997 53.9163C42.1002 53.9163 50.7236 45.4258 50.7236 34.9882H52.1593C53.0654 34.9882 53.7996 34.2653 53.7996 33.3732V30.5461C53.7996 29.654 53.0655 28.9311 52.1594 28.9311ZM36.9209 18.3314H38.4204C38.8451 18.3314 39.1893 17.9924 39.1893 17.5743C39.1893 17.1561 38.8451 16.8172 38.4204 16.8172H36.9209C37.3067 12.9913 40.5849 10.003 44.572 10.003C48.5592 10.003 51.8373 12.9913 52.2231 16.8172H50.7236C50.2989 16.8172 49.9547 17.1561 49.9547 17.5743C49.9547 17.9924 50.299 18.3314 50.7236 18.3314H52.2231C51.8624 21.9082 48.9736 24.7524 45.3409 25.1077V23.6312C45.3409 23.213 44.9966 22.8741 44.572 22.8741C44.1474 22.8741 43.8031 23.213 43.8031 23.6312V25.1077C40.1704 24.7525 37.2816 21.9082 36.9209 18.3314ZM40.6721 25.9312C41.9106 26.4092 43.2256 26.6598 44.572 26.6598C45.9183 26.6598 47.2334 26.4092 48.4719 25.9312L49.6141 28.9311H39.5299L40.6721 25.9312ZM13.8138 10.1038C13.8138 10.0479 13.8594 10.003 13.9161 10.003H22.939C22.9957 10.003 23.0413 10.0479 23.0413 10.1038V14.5458H13.8138V10.1038ZM10.7381 18.9878V16.1607C10.7381 16.1049 10.7837 16.06 10.8404 16.06H13.0448H23.8102H26.015C26.0717 16.06 26.1173 16.1049 26.1173 16.1607V18.9878C26.1173 19.0436 26.0717 19.0885 26.015 19.0885H23.8102H13.0448H10.8404C10.7837 19.0885 10.7381 19.0437 10.7381 18.9878ZM31.4997 52.402C21.7485 52.402 13.8137 44.5895 13.8137 34.9881V20.6027H23.0412V34.9881C23.0412 39.5871 26.8289 43.3165 31.4997 43.3165C36.1706 43.3165 39.9583 39.5871 39.9583 34.9881H49.1857C49.1857 44.5895 41.2509 52.402 31.4997 52.402ZM52.2617 33.3732C52.2617 33.429 52.2161 33.4739 52.1594 33.4739H49.9547H39.1893H36.9849C36.9283 33.4739 36.8827 33.429 36.8827 33.3732V30.5461C36.8827 30.4903 36.9283 30.4454 36.9849 30.4454H38.4204H50.7237H52.1594C52.2161 30.4454 52.2617 30.4903 52.2617 30.5461V33.3732Z" fill="#9A3F81"/>
<path d="M44.5718 19.8456C45.8454 19.8456 46.8786 18.8283 46.8786 17.5743C46.8786 16.5858 46.2364 15.7447 45.3407 15.4328V13.0315C45.3407 12.6133 44.9964 12.2744 44.5718 12.2744C44.1472 12.2744 43.8028 12.6133 43.8028 13.0315V15.4328C42.9071 15.7448 42.2649 16.5858 42.2649 17.5743C42.2649 18.8283 43.2981 19.8456 44.5718 19.8456ZM44.5718 16.8172C44.996 16.8172 45.3407 17.1565 45.3407 17.5743C45.3407 17.992 44.996 18.3314 44.5718 18.3314C44.1475 18.3314 43.8028 17.992 43.8028 17.5743C43.8028 17.1565 44.1475 16.8172 44.5718 16.8172Z" fill="#9A3F81"/>
</svg>
